<svg width="20" height="20" viewBox="0 0 20 20" fill="none" xmlns="http://www.w3.org/2000/svg">
  <path d="M18.75 0H1.25C0.566406 0 0 0.566406 0 1.25V18.75C0 19.4336 0.566406 20 1.25 20H10.6934V12.2266H8.19336V9.3457H10.6934V6.85547C10.6934 4.58008 12.0801 3.05664 14.8242 3.05664C16.0352 3.05664 16.875 3.19336 16.875 3.19336V5.79102H15C14.1699 5.79102 13.75 6.25977 13.75 7.08008V9.3457H16.6699L16.25 12.2266H13.75V20H18.75C19.4336 20 20 19.4336 20 18.75V1.25C20 0.566406 19.4336 0 18.75 0Z" fill="white"/>
</svg>