<svg width="175" height="24" viewBox="0 0 175 24" fill="none" xmlns="http://www.w3.org/2000/svg">
  <path d="M48.736 11.048H57.208V20H54.808L54.496 18.176C53.728 18.912 52.92 19.448 52.072 19.784C51.224 20.12 50.192 20.288 48.976 20.288C46.432 20.288 44.464 19.592 43.072 18.2C41.696 16.808 41.008 14.664 41.008 11.768C41.008 8.936 41.744 6.808 43.216 5.384C44.688 3.96 46.768 3.248 49.456 3.248C50.88 3.248 52.176 3.472 53.344 3.92C54.528 4.352 55.464 5.016 56.152 5.912C56.856 6.792 57.208 7.872 57.208 9.152H53.608C53.608 8.256 53.208 7.544 52.408 7.016C51.624 6.472 50.68 6.2 49.576 6.2C47.896 6.2 46.64 6.648 45.808 7.544C44.992 8.44 44.584 9.728 44.584 11.408V12.128C44.584 13.888 44.96 15.2 45.712 16.064C46.48 16.912 47.648 17.336 49.216 17.336C50.512 17.336 51.584 17.032 52.432 16.424C53.28 15.8 53.712 14.96 53.728 13.904H48.736V11.048ZM63.2877 20.288C62.3117 20.288 61.4157 20.032 60.5997 19.52C59.7837 19.008 59.3757 18.08 59.3757 16.736C59.3757 15.12 60.0397 13.976 61.3677 13.304C62.6957 12.616 64.5757 12.272 67.0077 12.272V11.384C67.0077 10.824 66.8797 10.392 66.6237 10.088C66.3837 9.784 65.9197 9.632 65.2317 9.632C64.4957 9.632 63.9677 9.744 63.6477 9.968C63.3437 10.192 63.1917 10.456 63.1917 10.76V11.12H60.0237C60.0077 11.024 59.9997 10.848 59.9997 10.592C59.9997 9.536 60.4637 8.688 61.3917 8.048C62.3357 7.408 63.5837 7.088 65.1357 7.088C66.8637 7.088 68.1517 7.44 68.9997 8.144C69.8637 8.848 70.2957 9.864 70.2957 11.192V16.76C70.2957 17.048 70.3757 17.264 70.5357 17.408C70.6957 17.536 70.8957 17.6 71.1357 17.6H71.8077V19.904C71.2957 20.16 70.6637 20.288 69.9117 20.288C69.2557 20.288 68.7037 20.144 68.2557 19.856C67.8237 19.568 67.5277 19.16 67.3677 18.632H67.2237C66.7597 19.176 66.2237 19.592 65.6157 19.88C65.0237 20.152 64.2477 20.288 63.2877 20.288ZM64.3197 17.696C65.2477 17.696 65.9277 17.44 66.3597 16.928C66.7917 16.4 67.0077 15.704 67.0077 14.84V14.456C64.1437 14.456 62.7117 15.096 62.7117 16.376C62.7117 16.776 62.8397 17.096 63.0957 17.336C63.3677 17.576 63.7757 17.696 64.3197 17.696ZM73.7196 7.376H76.5276L76.7916 9.416H76.9596C77.2316 8.696 77.5836 8.128 78.0156 7.712C78.4476 7.296 79.0156 7.088 79.7196 7.088C80.0236 7.088 80.2876 7.12 80.5116 7.184C80.7516 7.232 80.9036 7.272 80.9676 7.304V10.376H80.0556C78.9836 10.376 78.2076 10.672 77.7276 11.264C77.2476 11.84 77.0076 12.72 77.0076 13.904V20H73.7196V7.376ZM85.9518 20.288C84.9758 20.288 84.0798 20.032 83.2638 19.52C82.4478 19.008 82.0398 18.08 82.0398 16.736C82.0398 15.12 82.7038 13.976 84.0318 13.304C85.3598 12.616 87.2398 12.272 89.6718 12.272V11.384C89.6718 10.824 89.5438 10.392 89.2878 10.088C89.0478 9.784 88.5838 9.632 87.8958 9.632C87.1598 9.632 86.6318 9.744 86.3118 9.968C86.0078 10.192 85.8558 10.456 85.8558 10.76V11.12H82.6878C82.6718 11.024 82.6638 10.848 82.6638 10.592C82.6638 9.536 83.1278 8.688 84.0558 8.048C84.9998 7.408 86.2478 7.088 87.7998 7.088C89.5278 7.088 90.8158 7.44 91.6638 8.144C92.5278 8.848 92.9598 9.864 92.9598 11.192V16.76C92.9598 17.048 93.0398 17.264 93.1998 17.408C93.3598 17.536 93.5598 17.6 93.7998 17.6H94.4718V19.904C93.9598 20.16 93.3278 20.288 92.5758 20.288C91.9198 20.288 91.3678 20.144 90.9198 19.856C90.4878 19.568 90.1918 19.16 90.0318 18.632H89.8878C89.4238 19.176 88.8878 19.592 88.2798 19.88C87.6878 20.152 86.9118 20.288 85.9518 20.288ZM86.9838 17.696C87.9118 17.696 88.5918 17.44 89.0238 16.928C89.4558 16.4 89.6718 15.704 89.6718 14.84V14.456C86.8078 14.456 85.3758 15.096 85.3758 16.376C85.3758 16.776 85.5038 17.096 85.7598 17.336C86.0318 17.576 86.4398 17.696 86.9838 17.696ZM99.2877 20.288C98.3117 20.288 97.4157 20.032 96.5997 19.52C95.7837 19.008 95.3757 18.08 95.3757 16.736C95.3757 15.12 96.0397 13.976 97.3677 13.304C98.6957 12.616 100.576 12.272 103.008 12.272V11.384C103.008 10.824 102.88 10.392 102.624 10.088C102.384 9.784 101.92 9.632 101.232 9.632C100.496 9.632 99.9677 9.744 99.6477 9.968C99.3437 10.192 99.1917 10.456 99.1917 10.76V11.12H96.0237C96.0077 11.024 95.9997 10.848 95.9997 10.592C95.9997 9.536 96.4637 8.688 97.3917 8.048C98.3357 7.408 99.5837 7.088 101.136 7.088C102.864 7.088 104.152 7.44 105 8.144C105.864 8.848 106.296 9.864 106.296 11.192V16.76C106.296 17.048 106.376 17.264 106.536 17.408C106.696 17.536 106.896 17.6 107.136 17.6H107.808V19.904C107.296 20.16 106.664 20.288 105.912 20.288C105.256 20.288 104.704 20.144 104.256 19.856C103.824 19.568 103.528 19.16 103.368 18.632H103.224C102.76 19.176 102.224 19.592 101.616 19.88C101.024 20.152 100.248 20.288 99.2877 20.288ZM100.32 17.696C101.248 17.696 101.928 17.44 102.36 16.928C102.792 16.4 103.008 15.704 103.008 14.84V14.456C100.144 14.456 98.7117 15.096 98.7117 16.376C98.7117 16.776 98.8397 17.096 99.0957 17.336C99.3677 17.576 99.7757 17.696 100.32 17.696ZM108.52 18.536L114.496 10.064H108.88V7.376H119.272V8.816L113.272 17.312H119.488V20H108.52V18.536ZM121.72 2.648H125.008V5.624H121.72V2.648ZM121.72 7.376H125.008V20H121.72V7.376ZM132.623 20.288C131.023 20.288 129.783 19.744 128.903 18.656C128.023 17.552 127.583 15.888 127.583 13.664C127.583 11.488 128.023 9.848 128.903 8.744C129.799 7.64 130.983 7.088 132.455 7.088C133.303 7.088 134.047 7.24 134.687 7.544C135.343 7.848 135.855 8.28 136.223 8.84H136.367V2.648H139.655V20H136.847L136.631 18.344H136.463C136.063 18.984 135.527 19.472 134.855 19.808C134.183 20.128 133.439 20.288 132.623 20.288ZM133.679 17.432C135.471 17.432 136.367 16.256 136.367 13.904V13.52C136.367 11.136 135.471 9.944 133.679 9.944C132.703 9.944 132.007 10.24 131.591 10.832C131.175 11.408 130.967 12.288 130.967 13.472V13.904C130.967 15.088 131.175 15.976 131.591 16.568C132.007 17.144 132.703 17.432 133.679 17.432ZM143.047 16.712H146.359V20H143.047V16.712ZM154.959 20.288C152.927 20.288 151.407 19.752 150.399 18.68C149.407 17.608 148.911 15.944 148.911 13.688C148.911 11.432 149.407 9.768 150.399 8.696C151.407 7.624 152.927 7.088 154.959 7.088C156.831 7.088 158.231 7.632 159.159 8.72C160.087 9.792 160.551 11.448 160.551 13.688V14.456H152.247C152.279 15.576 152.503 16.408 152.919 16.952C153.335 17.48 154.031 17.744 155.007 17.744C155.695 17.744 156.247 17.552 156.663 17.168C157.095 16.784 157.311 16.24 157.311 15.536H160.551C160.551 17.12 160.039 18.312 159.015 19.112C157.991 19.896 156.639 20.288 154.959 20.288ZM157.143 12.272C157.143 10.528 156.415 9.656 154.959 9.656C154.127 9.656 153.495 9.872 153.063 10.304C152.647 10.736 152.391 11.392 152.295 12.272H157.143ZM168.295 20.288C166.263 20.288 164.743 19.752 163.735 18.68C162.743 17.608 162.247 15.944 162.247 13.688C162.247 11.432 162.743 9.768 163.735 8.696C164.743 7.624 166.263 7.088 168.295 7.088C170.167 7.088 171.567 7.632 172.495 8.72C173.423 9.792 173.887 11.448 173.887 13.688V14.456H165.583C165.615 15.576 165.839 16.408 166.255 16.952C166.671 17.48 167.367 17.744 168.343 17.744C169.031 17.744 169.583 17.552 169.999 17.168C170.431 16.784 170.647 16.24 170.647 15.536H173.887C173.887 17.12 173.375 18.312 172.351 19.112C171.327 19.896 169.975 20.288 168.295 20.288ZM170.479 12.272C170.479 10.528 169.751 9.656 168.295 9.656C167.463 9.656 166.831 9.872 166.399 10.304C165.983 10.736 165.727 11.392 165.631 12.272H170.479Z" fill="white"/>
  <path d="M16.0982 11.3929L16.8482 14.0797H7.15178L7.90177 11.3929C7.9911 11.1862 8.14283 11.0656 8.35718 11.0312C9.46425 10.8934 10.6875 10.8245 12.0268 10.8245C12.2947 10.8245 12.5625 10.8331 12.8303 10.8504C13.1161 10.8504 13.375 10.859 13.6072 10.8762C13.8393 10.8762 14.0625 10.8848 14.2768 10.9021C14.491 10.9193 14.6785 10.9365 14.8393 10.9537C15 10.9709 15.134 10.9882 15.241 11.0054C15.3661 11.0054 15.4643 11.014 15.5357 11.0312H15.6428C15.7143 11.0485 15.8035 11.1001 15.9107 11.1862C16.0178 11.2551 16.0804 11.324 16.0982 11.3929ZM23.6786 9.81697C23.8928 10.1098 24 10.4284 24 10.7729V22.3466C24 22.7944 23.8303 23.1819 23.4911 23.5091C23.1518 23.8364 22.75 24 22.2857 24H19.7143V21.5975C20.4464 21.3735 20.9197 20.9774 21.1339 20.4091C21.4375 19.5651 21.5893 18.7212 21.5893 17.8773C21.5893 17.0506 21.4375 16.2153 21.1339 15.3714C21.0089 15.0786 20.8482 14.8375 20.6518 14.648C20.3482 14.3725 19.9732 14.2088 19.5268 14.1572L18.5625 10.6179C18.4196 10.0667 18.0982 9.58447 17.5982 9.17115C17.1161 8.75782 16.5803 8.50807 15.991 8.42197L15.75 8.3961C15.6071 8.37893 15.4107 8.36168 15.1607 8.34443C14.9286 8.31 14.6518 8.2842 14.3303 8.26695C14.0268 8.2497 13.6697 8.23252 13.259 8.21527C12.8483 8.19802 12.4375 8.18948 12.0268 8.18948C11.6161 8.18948 11.1964 8.19802 10.7678 8.21527C10.3571 8.23252 9.99105 8.2497 9.66968 8.26695C9.36608 8.2842 9.08925 8.31 8.83928 8.34443C8.5893 8.36168 8.39287 8.37893 8.25 8.3961L8.00895 8.42197C7.41965 8.50807 6.875 8.75782 6.375 9.17115C5.89286 9.58447 5.58036 10.0667 5.4375 10.6179L4.47321 14.1572C3.99107 14.2261 3.61607 14.3897 3.34822 14.648C3.15179 14.8375 2.99107 15.0786 2.86607 15.3714C2.5625 16.1464 2.41072 16.9904 2.41072 17.9031C2.41072 18.7987 2.5625 19.634 2.86607 20.4091C3.08035 20.9774 3.55358 21.3735 4.28572 21.5975V24H1.71428C1.25 24 0.848212 23.8364 0.508928 23.5091C0.169642 23.1819 0 22.7944 0 22.3466V10.7729C0 10.4284 0.107143 10.1098 0.321428 9.81697C1.16071 8.69753 2.09821 7.60388 3.13393 6.53606C4.1875 5.45102 5.13393 4.56405 5.97321 3.87514C6.8125 3.18622 7.66072 2.54036 8.51782 1.93757C9.375 1.33477 9.98213 0.92142 10.3393 0.697524C10.6964 0.473628 10.9642 0.318622 11.1428 0.232508C11.7142 -0.0775027 12.2858 -0.0775027 12.8572 0.232508C13.0358 0.318622 13.3036 0.473628 13.6607 0.697524C14.0179 0.92142 14.625 1.33477 15.4822 1.93757C16.3393 2.54036 17.1875 3.18622 18.0268 3.87514C18.8661 4.56405 19.8036 5.45102 20.8393 6.53606C21.8929 7.60388 22.8393 8.69753 23.6786 9.81697ZM7.71427 24V21.5199H16.2857V24H7.71427ZM4.79464 17.0506C5.13393 16.7234 5.53571 16.5598 6 16.5598C6.46429 16.5598 6.86607 16.7234 7.20535 17.0506C7.54462 17.3778 7.71427 17.7653 7.71427 18.2132C7.71427 18.6609 7.54462 19.0484 7.20535 19.3757C6.86607 19.7029 6.46429 19.8665 6 19.8665C5.53571 19.8665 5.13393 19.7029 4.79464 19.3757C4.45536 19.0484 4.28572 18.6609 4.28572 18.2132C4.28572 17.7653 4.45536 17.3778 4.79464 17.0506ZM16.7947 17.0506C17.1339 16.7234 17.5357 16.5598 18 16.5598C18.4643 16.5598 18.8661 16.7234 19.2053 17.0506C19.5446 17.3778 19.7143 17.7653 19.7143 18.2132C19.7143 18.6609 19.5446 19.0484 19.2053 19.3757C18.8661 19.7029 18.4643 19.8665 18 19.8665C17.5357 19.8665 17.1339 19.7029 16.7947 19.3757C16.4554 19.0484 16.2857 18.6609 16.2857 18.2132C16.2857 17.7653 16.4554 17.3778 16.7947 17.0506Z" fill="#F2C94C"/>
</svg>