<svg width="21" height="21" viewBox="0 0 21 21" fill="none" xmlns="http://www.w3.org/2000/svg">
  <path d="M2.38513 21C2.43396 21 2.48279 21 2.55114 20.9805C11.6234 19.8379 18.8402 12.6406 19.9828 3.54883C20.0023 3.48047 20.0023 3.43164 20.0023 3.38281C20.0023 3.33399 19.9828 3.26563 19.9535 3.22656C19.934 3.12891 19.8363 3.04102 19.7484 2.99219L14.7972 1.01953C14.5824 0.951173 14.3578 1.04883 14.2601 1.23438L11.5258 6.69336C11.4379 6.85938 11.4867 7.04492 11.6039 7.18164L14.2601 9.83789C12.8929 12.0449 11.0472 13.9199 8.84021 15.2871L6.18396 12.6016C6.04724 12.4844 5.86169 12.4355 5.69568 12.5234L0.236691 15.2578C0.0511446 15.3555 -0.0465116 15.5801 0.0218477 15.7949L1.9945 20.7461C2.04333 20.834 2.11169 20.9316 2.22888 20.9805C2.26794 21 2.3363 21 2.38513 21Z" fill="white"/>
</svg>