<svg width="266" height="92" viewBox="0 0 266 92" fill="none" xmlns="http://www.w3.org/2000/svg">
  <path d="M1 91C17.9898 76.0788 34.7951 60.8748 51.0593 45.2392C60.5409 36.124 69.5725 26.6478 78.2271 16.8181C82.5505 11.9077 95.8768 -2.41703 90.7629 1.75054C79.4323 10.9843 71.4456 25.4667 64.1401 37.5061C60.314 43.8114 56.9615 50.2084 54.5391 57.1179C53.8442 59.0999 51.7912 63.6576 52.3589 66.0867C52.4723 66.5717 53.3831 61.9223 53.4071 61.5425C53.8355 54.7533 49.0445 54.761 42.758 54.5668C30.9686 54.2026 18.5208 54.1835 7.41463 58.5529C5.19425 59.4264 12.1813 59.2337 14.5839 59.2704C31.8568 59.5339 49.1611 58.9156 66.4041 57.9948C77.9108 57.3804 89.382 56.5101 100.825 55.2045C103.19 54.9347 105.548 54.6182 107.91 54.3276C109.527 54.1287 112.226 52.39 112.774 53.8493C113.127 54.7897 84.2275 66.4138 81.2877 67.7609C80.3078 68.2098 77.3705 69.4745 78.2271 68.8371C83.7378 64.7367 89.3463 60.9661 94.4104 56.3207C98.2837 52.7675 121.058 31.8505 124 27.5C126.062 24.451 106.349 45.2392 95.2489 49.3051C87.3487 53.8748 76.1915 58.3648 70.0935 65.2496C69.2712 66.1781 71.105 65.7679 71.4351 65.7279C81.6659 64.4882 91.8248 62.6897 102.041 61.3432C126.557 58.1119 149.903 49.5549 174.603 49.3051C220.331 48.8426 219.357 58.8521 265 56.3207" stroke="currentColor" stroke-width="2" stroke-linecap="round" stroke-linejoin="round"/>
</svg>