<svg width="316" height="68" viewBox="0 0 316 68" fill="none" xmlns="http://www.w3.org/2000/svg">
  <path
    d="M31.979 54.406C45.441 45.798 57.708 36.776 72.617 28.709C91.798 18.331 116.984 3.51599 108.176 3.51599C102.207 3.51599 62.768 61.132 41.122 66.499C35.729 67.837 1.5 52.184 1.5 49.368C1.5 48.935 24.182 45.947 24.867 45.841C64.82 39.648 105.612 33.076 142.718 23.166C165.866 16.985 177.825 1.444 177.261 1.5C151.408 4.064 114.719 39.614 102.08 49.872C101.238 50.555 83.748 65.716 81.761 64.484C74.587 60.037 83.657 38.786 98.016 38.786C110.798 38.786 91.491 54.728 139.67 39.794C151.937 35.992 109.2 52.62 136.622 51.383C153.963 50.601 170.585 48.965 186.404 43.825C232.942 28.705 242.806 36.799 315.143 28.705"
    stroke="currentColor"
    stroke-width="3"
    stroke-linecap="round"
    stroke-linejoin="round" />
</svg>